HIERARCHY
ROOT hip
{
  OFFSET 0 0 0
  CHANNELS 6 Xposition Yposition Zposition Zrotation Yrotation Xrotation
  JOINT abdomen
  {
    OFFSET 0 20.6881 -0.73152
    CHANNELS 3 Zrotation Xrotation Yrotation
    JOINT chest
    {
      OFFSET 0 11.7043 -0.48768
      CHANNELS 3 Zrotation Xrotation Yrotation
      JOINT neck
      {
        OFFSET 0 22.1894 -2.19456
        CHANNELS 3 Zrotation Xrotation Yrotation
        JOINT head
        {
          OFFSET -0.24384 7.07133 1.2192
          CHANNELS 3 Zrotation Xrotation Yrotation
          JOINT leftEye
          {
            OFFSET 4.14528 8.04674 8.04672
            CHANNELS 3 Zrotation Xrotation Yrotation
            End Site
            {
              OFFSET 1 0 0
            }
          }
          JOINT rightEye
          {
            OFFSET -3.6576 8.04674 8.04672
            CHANNELS 3 Zrotation Xrotation Yrotation
            End Site
            {
              OFFSET 1 0 0
            }
          }
        }
      }
      JOINT rCollar
      {
        OFFSET -2.68224 19.2634 -4.8768
        CHANNELS 3 Zrotation Xrotation Yrotation
        JOINT rShldr
        {
          OFFSET -8.77824 -1.95073 1.46304
          CHANNELS 3 Zrotation Xrotation Yrotation
          JOINT rForeArm
          {
            OFFSET -28.1742 -1.7115 0.48768
            CHANNELS 3 Zrotation Xrotation Yrotation
            JOINT rHand
            {
              OFFSET -22.5879 0.773209 7.07136
              CHANNELS 3 Zrotation Xrotation Yrotation
              JOINT rThumb1
              {
                OFFSET -1.2192 -0.487915 3.41376
                CHANNELS 3 Zrotation Xrotation Yrotation
                JOINT rThumb2
                {
                  OFFSET -3.37035 -0.52449 3.41376
                  CHANNELS 3 Zrotation Xrotation Yrotation
                  End Site
                  {
                    OFFSET -1.78271 -1.18214 1.43049
                  }
                }
              }
              JOINT rIndex1
              {
                OFFSET -7.75947 0.938293 5.60832
                CHANNELS 3 Zrotation Xrotation Yrotation
                JOINT rIndex2
                {
                  OFFSET -2.54057 -0.884171 1.56538
                  CHANNELS 3 Zrotation Xrotation Yrotation
                  End Site
                  {
                    OFFSET -1.62519 -0.234802 1.16502
                  }
                }
              }
              JOINT rMid1
              {
                OFFSET -8.24714 1.18213 3.41376
                CHANNELS 3 Zrotation Xrotation Yrotation
                JOINT rMid2
                {
                  OFFSET -3.10165 -0.590103 1.0647
                  CHANNELS 3 Zrotation Xrotation Yrotation
                  End Site
                  {
                    OFFSET -2.48547 -0.328903 0.83742
                  }
                }
              }
              JOINT rRing1
              {
                OFFSET -8.82822 0.546677 1.51678
                CHANNELS 3 Zrotation Xrotation Yrotation
                JOINT rRing2
                {
                  OFFSET -2.60934 -0.819778 -0.0198488
                  CHANNELS 3 Zrotation Xrotation Yrotation
                  End Site
                  {
                    OFFSET -2.33842 -0.294052 0.168128
                  }
                }
              }
              JOINT rPinky1
              {
                OFFSET -8.27202 -0.0477905 -0.4584
                CHANNELS 3 Zrotation Xrotation Yrotation
                JOINT rPinky2
                {
                  OFFSET -1.82734 -0.647385 -0.700984
                  CHANNELS 3 Zrotation Xrotation Yrotation
                  End Site
                  {
                    OFFSET -1.69225 -0.51767 -0.607171
                  }
                }
              }
            }
          }
        }
      }
      JOINT lCollar
      {
        OFFSET 2.68224 19.2634 -4.8768
        CHANNELS 3 Zrotation Xrotation Yrotation
        JOINT lShldr
        {
          OFFSET 8.77824 -1.95073 1.46304
          CHANNELS 3 Zrotation Xrotation Yrotation
          JOINT lForeArm
          {
            OFFSET 28.1742 -1.7115 0.48768
            CHANNELS 3 Zrotation Xrotation Yrotation
            JOINT lHand
            {
              OFFSET 22.5879 0.773209 7.07136
              CHANNELS 3 Zrotation Xrotation Yrotation
              JOINT lThumb1
              {
                OFFSET 1.2192 -0.487915 3.41376
                CHANNELS 3 Zrotation Xrotation Yrotation
                JOINT lThumb2
                {
                  OFFSET 3.37035 -0.52449 3.41376
                  CHANNELS 3 Zrotation Xrotation Yrotation
                  End Site
                  {
                    OFFSET 1.78271 -1.18214 1.43049
                  }
                }
              }
              JOINT lIndex1
              {
                OFFSET 7.75947 0.938293 5.60832
                CHANNELS 3 Zrotation Xrotation Yrotation
                JOINT lIndex2
                {
                  OFFSET 2.54057 -0.884171 1.56538
                  CHANNELS 3 Zrotation Xrotation Yrotation
                  End Site
                  {
                    OFFSET 1.62519 -0.234802 1.16502
                  }
                }
              }
              JOINT lMid1
              {
                OFFSET 8.24714 1.18213 3.41376
                CHANNELS 3 Zrotation Xrotation Yrotation
                JOINT lMid2
                {
                  OFFSET 3.10165 -0.590103 1.0647
                  CHANNELS 3 Zrotation Xrotation Yrotation
                  End Site
                  {
                    OFFSET 2.48547 -0.328903 0.83742
                  }
                }
              }
              JOINT lRing1
              {
                OFFSET 8.82822 0.546677 1.51678
                CHANNELS 3 Zrotation Xrotation Yrotation
                JOINT lRing2
                {
                  OFFSET 2.60934 -0.819778 -0.0198488
                  CHANNELS 3 Zrotation Xrotation Yrotation
                  End Site
                  {
                    OFFSET 2.33842 -0.294052 0.168128
                  }
                }
              }
              JOINT lPinky1
              {
                OFFSET 8.27202 -0.0477905 -0.4584
                CHANNELS 3 Zrotation Xrotation Yrotation
                JOINT lPinky2
                {
                  OFFSET 1.82734 -0.647385 -0.700984
                  CHANNELS 3 Zrotation Xrotation Yrotation
                  End Site
                  {
                    OFFSET 1.69225 -0.51767 -0.607171
                  }
                }
              }
            }
          }
        }
      }
    }
  }
  JOINT rButtock
  {
    OFFSET -8.77824 4.35084 1.2192
    CHANNELS 3 Zrotation Xrotation Yrotation
    JOINT rThigh
    {
      OFFSET 0 -1.70687 -2.19456
      CHANNELS 3 Zrotation Xrotation Yrotation
      JOINT rShin
      {
        OFFSET 0 -36.8199 0.73152
        CHANNELS 3 Zrotation Xrotation Yrotation
        JOINT rFoot
        {
          OFFSET 0.73152 -45.1104 -5.12064
          CHANNELS 3 Zrotation Xrotation Yrotation
          End Site
          {
            OFFSET -1.1221 -3.69964 12.103
          }
        }
      }
    }
  }
  JOINT lButtock
  {
    OFFSET 8.77824 4.35084 1.2192
    CHANNELS 3 Zrotation Xrotation Yrotation
    JOINT lThigh
    {
      OFFSET 0 -1.70687 -2.19456
      CHANNELS 3 Zrotation Xrotation Yrotation
      JOINT lShin
      {
        OFFSET 0 -36.8199 0.73152
        CHANNELS 3 Zrotation Xrotation Yrotation
        JOINT lFoot
        {
          OFFSET -0.73152 -45.1104 -5.12064
          CHANNELS 3 Zrotation Xrotation Yrotation
          End Site
          {
            OFFSET 1.1221 -3.69964 12.103
          }
        }
      }
    }
  }
}
MOTION
Frames:	4
Frame Time:	0.00833333
31.5203 80.2288 -5.33467 60.6784 -87.759 -412.189 -5.8703 -7.13683 -5.49042 0.661305 -8.7145 -1.39881 -8.52214 30.4044 -20.2366 29.7861 -23.1705 -37.5503 -0.0 0.0 0.0 -0.0 0.0 0.0 -3.19478e-14 7.10607e-13 9.95131e-14 58.3276 -24.7881 46.4343 -28.4308 -35.8775 76.8134 -0.0217558 -4.8415 -0.683212 9.80566e-10 6.32721e-10 -2.17003e-09 1.70588e-09 1.09967e-09 -3.74891e-09 9.80571e-10 6.32717e-10 -2.17004e-09 7.73091 5.47488 0.417314 9.80567e-10 6.32717e-10 -2.17003e-09 2.90554 0.965183 0.102902 9.80571e-10 6.32717e-10 -2.17003e-09 10.2786 0.731801 0.0259123 9.80564e-10 6.32718e-10 -2.17003e-09 2.22167 -0.733487 -0.20892 -3.19686e-14 7.10605e-13 9.92755e-14 -97.3239 42.3021 24.3182 25.5304 -47.1303 -97.9961 0.34847 16.5569 -2.39463 2.13737e-09 1.18229e-09 -1.77234e-09 3.67243e-09 2.04791e-09 -3.09402e-09 2.13735e-09 1.1823e-09 -1.77232e-09 -7.73091 5.47488 -0.417314 2.13737e-09 1.18229e-09 -1.77234e-09 -2.90554 0.965183 -0.102902 2.13736e-09 1.1823e-09 -1.77234e-09 -10.2786 0.731801 -0.0259123 2.13737e-09 1.1823e-09 -1.77235e-09 -2.22167 -0.733487 0.20892 -2.03217e-16 0.0 -3.88251e-19 14.2125 -30.1109 -8.5003 -0.196795 34.1633 0.172027 -2.88539 -15.5006 -7.3705 2.03217e-16 0.0 3.88251e-19 9.65727 -32.1431 0.496576 2.40477 71.9539 -2.74028 0.455285 12.0099 -1.25348
30.528 79.8647 -5.8273 -15.5711 -94.9925 -335.387 -5.93237 -6.98616 -6.17816 1.67556 -8.67823 -1.53219 -7.39502 30.4589 -21.3326 29.5079 -22.8202 -39.8968 -0.0 0.0 0.0 -0.0 0.0 0.0 2.00513e-14 4.77055e-13 1.51924e-13 57.3025 -23.6535 48.279 -28.4303 -35.9984 77.012 -0.0697536 -7.48385 -1.06295 8.11955e-10 5.20787e-10 -1.98143e-09 1.41971e-09 9.05598e-10 -3.42022e-09 8.11959e-10 5.20784e-10 -1.98144e-09 7.73091 5.47488 0.417314 8.11956e-10 5.20786e-10 -1.98144e-09 2.90554 0.965183 0.102902 8.11962e-10 5.20785e-10 -1.98144e-09 10.2786 0.731801 0.0259123 8.11954e-10 5.20786e-10 -1.98143e-09 2.22167 -0.733487 -0.20892 2.0058e-14 4.7705e-13 1.51719e-13 -98.2602 42.6763 25.4839 25.4178 -47.3237 -98.4236 0.343386 16.4397 -2.37669 1.93443e-09 2.11734e-09 -1.47296e-09 3.32398e-09 3.66716e-09 -2.57198e-09 1.93442e-09 2.11735e-09 -1.47294e-09 -7.73091 5.47488 -0.417314 1.93443e-09 2.11735e-09 -1.47296e-09 -2.90554 0.965183 -0.102902 1.93442e-09 2.11735e-09 -1.47296e-09 -10.2786 0.731801 -0.0259123 1.93443e-09 2.11735e-09 -1.47297e-09 -2.22167 -0.733487 0.20892 -2.03217e-16 0.0 -3.88251e-19 14.9591 -29.2724 -8.67199 -0.20044 34.7561 0.201726 -1.13371 -13.9074 -1.91255 2.03217e-16 0.0 3.88251e-19 9.27791 -34.7386 -1.19107 2.59842 72.9516 -2.93928 0.197859 9.06574 2.86595
29.596 79.618 -6.26096 -4.3679 -101.125 -346.022 -5.95707 -6.82846 -6.69733 2.67818 -8.63759 -1.6208 -6.43415 30.3526 -22.1649 29.2268 -22.2839 -41.8057 -0.0 0.0 0.0 -0.0 0.0 0.0 7.9118e-14 2.49407e-13 1.83971e-13 56.1552 -22.6489 50.2014 -28.4286 -36.17 77.295 -0.148611 -10.5928 -1.51249 7.1927e-10 4.09801e-10 -1.57179e-09 1.26045e-09 7.12733e-10 -2.70832e-09 7.19273e-10 4.098e-10 -1.5718e-09 7.73091 5.47488 0.417314 7.19269e-10 4.09802e-10 -1.57179e-09 2.90554 0.965183 0.102902 7.19277e-10 4.09802e-10 -1.57179e-09 10.2786 0.731801 0.0259123 7.19269e-10 4.09803e-10 -1.57179e-09 2.22167 -0.733487 -0.20892 7.91544e-14 2.49399e-13 1.83802e-13 -99.3268 43.0719 26.793 25.3179 -47.489 -98.7956 0.336705 16.2842 -2.35294 1.67421e-09 2.37227e-09 -1.05945e-09 2.8781e-09 4.10995e-09 -1.85213e-09 1.67421e-09 2.37227e-09 -1.05944e-09 -7.73091 5.47488 -0.417314 1.67421e-09 2.37228e-09 -1.05945e-09 -2.90554 0.965183 -0.102902 1.6742e-09 2.37228e-09 -1.05945e-09 -10.2786 0.731801 -0.0259123 1.67421e-09 2.37228e-09 -1.05947e-09 -2.22167 -0.733487 0.20892 -2.03217e-16 0.0 -3.88251e-19 15.5781 -28.3621 -8.51227 -0.202053 35.2903 0.248723 0.270466 -12.1522 3.49791 2.03217e-16 0.0 3.88251e-19 8.63796 -37.0564 -3.16231 2.70349 73.4364 -3.06411 0.382626 6.044 6.53372
28.6802 79.5021 -6.68785 -0.5698 -107.97 -349.247 -5.59234 -6.70929 -6.96674 3.47914 -8.61882 -1.65968 -5.92096 30.291 -22.5562 29.2328 -21.9246 -42.8816 -0.0 0.0 0.0 -0.0 0.0 0.0 1.05728e-13 3.85689e-14 1.39994e-13 54.9209 -22.1081 52.1461 -28.4259 -36.3056 77.5223 -0.24672 -14.0036 -2.00864 8.02821e-10 3.03625e-10 -8.55741e-10 1.39535e-09 5.27781e-10 -1.46516e-09 8.02824e-10 3.03626e-10 -8.55751e-10 7.73091 5.47488 0.417314 8.0282e-10 3.03628e-10 -8.55741e-10 2.90554 0.965183 0.102902 8.02829e-10 3.03628e-10 -8.5574e-10 10.2786 0.731801 0.0259123 8.0282e-10 3.0363e-10 -8.55735e-10 2.22167 -0.733487 -0.20892 1.05786e-13 3.856e-14 1.39845e-13 -100.374 43.5139 28.0045 25.2545 -47.59 -99.0281 0.329631 16.1185 -2.32766 1.28085e-09 1.17299e-09 -4.53302e-10 2.20517e-09 2.03723e-09 -7.98378e-10 1.28085e-09 1.173e-09 -4.53299e-10 -7.73091 5.47488 -0.417314 1.28086e-09 1.173e-09 -4.53302e-10 -2.90554 0.965183 -0.102902 1.28085e-09 1.173e-09 -4.53302e-10 -10.2786 0.731801 -0.0259123 1.28086e-09 1.173e-09 -4.53315e-10 -2.22167 -0.733487 0.20892 -2.03217e-16 0.0 -3.88251e-19 16.362 -27.4122 -7.54112 -0.198821 35.6493 0.305042 1.17233 -10.1676 8.3021 2.03217e-16 0.0 3.88251e-19 8.0475 -39.139 -5.34589 2.74008 73.6135 -3.13173 0.834063 3.35554 9.02402
